<?xml version="1.0" standalone="no"?><!DOCTYPE svg PUBLIC "-//W3C//DTD SVG 1.1//EN" "http://www.w3.org/Graphics/SVG/1.1/DTD/svg11.dtd"><svg class="icon" width="200px" height="200.00px" viewBox="0 0 1024 1024" version="1.1" xmlns="http://www.w3.org/2000/svg"><path  d="M896 289.344c0 17.664-14.336 28.8-32 28.8l-576 0c-17.664 0-32-11.136-32-28.8l0 0c0-17.664 14.336-32 32-32l576 0C881.664 257.344 896 271.616 896 289.344L896 289.344zM896 545.344c0-17.664-14.336-32-32-32l-576 0c-17.664 0-32 14.336-32 32l0 0c0 17.664 14.336 28.8 32 28.8l576 0C881.664 574.144 896 563.008 896 545.344L896 545.344zM896 801.344c0-17.664-14.336-32-32-32l-576 0c-17.664 0-32 14.336-32 32l0 0c0 17.664 14.336 28.8 32 28.8l576 0C881.664 830.144 896 819.008 896 801.344L896 801.344zM158.912 181.12 144.448 181.12C140.48 189.056 133.888 197.184 124.416 205.632S104 221.184 91.456 227.136l0 21.76c6.976-2.56 14.848-6.464 23.68-11.648s15.872-10.304 21.312-15.488l0 143.36 22.528 0L158.976 181.12zM95.872 605.568c2.496-4.032 5.696-8.128 9.472-12.16s12.48-11.776 25.984-23.04c16.192-13.696 27.776-24.448 34.688-32.256s11.968-15.296 14.912-22.4 4.48-14.336 4.48-21.632c0-14.464-5.12-26.496-15.36-36.224S145.92 443.2 128.384 443.2c-17.408 0-31.296 4.48-41.6 13.568S70.464 478.912 68.864 496.192L92.032 498.56C92.032 487.04 95.36 478.08 101.888 471.552s15.168-9.728 25.984-9.728c10.24 0 18.56 3.072 24.96 9.216s9.536 13.632 9.536 22.592c0 8.512-3.52 17.472-10.496 27.072S131.456 543.104 111.488 559.424c-12.8 10.496-22.656 19.776-29.44 27.776S70.336 603.328 67.264 611.584C65.344 616.576 64.448 621.76 64.64 627.2l121.152 0L185.792 605.568 95.872 605.568zM83.392 876.48c10.624 9.536 24 14.4 40.064 14.4 17.792 0 32.576-5.568 44.224-16.704s17.472-24.704 17.472-40.704c0-11.84-3.008-21.696-9.024-29.568s-14.464-13.056-25.28-15.552c8.32-3.84 14.656-9.024 18.88-15.488s6.4-13.696 6.4-21.632c0-8.32-2.24-16.192-6.656-23.616s-10.88-13.248-19.328-17.536-17.6-6.464-27.648-6.464c-14.528 0-26.624 4.096-36.352 12.416s-16 19.968-18.752 35.072l22.528 3.968c1.664-11.008 5.44-19.264 11.264-24.768s13.12-8.256 21.888-8.256c8.832 0 16.064 2.688 21.632 8.128s8.384 12.224 8.384 20.48c0 10.432-3.84 18.112-11.52 23.104s-16.32 7.488-25.856 7.488c-0.96 0-2.112-0.064-3.648-0.256l-2.496 19.776c6.336-1.664 11.648-2.496 15.872-2.496 10.432 0 19.008 3.392 25.728 10.048s10.112 15.232 10.112 25.536c0 10.816-3.648 19.968-10.944 27.264s-16.256 11.008-26.816 11.008c-8.96 0-16.512-2.816-22.656-8.448S90.24 849.024 87.68 836.224l-22.528 3.008C66.688 854.528 72.768 866.944 83.392 876.48z" /></svg>