<?xml version="1.0" standalone="no"?><!DOCTYPE svg PUBLIC "-//W3C//DTD SVG 1.1//EN" "http://www.w3.org/Graphics/SVG/1.1/DTD/svg11.dtd"><svg t="1661348698090" class="icon" viewBox="0 0 1024 1024" version="1.1" xmlns="http://www.w3.org/2000/svg" p-id="54481" xmlns:xlink="http://www.w3.org/1999/xlink" width="200" height="200"><defs><style type="text/css">@font-face { font-family: feedback-iconfont; src: url("//at.alicdn.com/t/font_1031158_u69w8yhxdu.woff2?t=1630033759944") format("woff2"), url("//at.alicdn.com/t/font_1031158_u69w8yhxdu.woff?t=1630033759944") format("woff"), url("//at.alicdn.com/t/font_1031158_u69w8yhxdu.ttf?t=1630033759944") format("truetype"); }
</style></defs><path d="M671.744 568.832l229.888 228.864v1.024h1.024c28.672 26.112 29.184 72.192-1.024 102.912h-1.024v1.024c-26.112 28.672-72.192 29.184-102.912-1.024l-228.864-229.888 102.912-102.912z m-541.184-449.536l86.528 53.248v36.864l-8.192 8.192h-36.864l-53.248-86.528 11.776-11.776z m608.256-9.216c5.12 0 8.704 3.072 13.824 3.584l-114.688 114.688-25.6 25.6 25.6 26.624 103.936 107.52 25.6 26.624 26.624-26.624 120.32-120.32c1.024 8.704 6.656 14.848 5.632 24.064v3.584c0 101.888-82.944 184.832-184.832 184.832-13.312 0-30.208-3.072-48.64-7.168l-19.456-3.584-13.824 13.824-417.28 418.304h-1.024v1.024c-26.112 28.672-72.192 29.184-102.912-1.024v-1.024h-1.024c-28.672-26.112-29.184-72.192 1.024-102.912 13.824-13.824 285.696-287.744 418.304-420.864l14.848-14.848-5.632-20.992c-3.072-11.776-5.632-32.768-5.632-46.08 0-101.888 82.944-184.832 184.832-184.832z m-619.52-83.456l-20.992 19.456-52.224 52.224-19.456 20.992 14.848 24.064 77.312 129.536 10.24 18.432h109.056l147.968 146.944c-132.096 132.608-300.544 301.568-306.176 307.712-57.856 57.856-58.368 153.088 1.024 207.872 57.856 57.344 152.064 58.368 206.848 0 0.512-0.512 1.024-0.512 1.024-1.024l227.84-228.864 228.864 229.888 3.584 2.56c57.856 54.784 150.528 55.296 204.8-2.56v-1.024h1.024c56.832-57.856 57.344-152.064-1.024-206.848l-1.024-1.024-193.024-192c130.048-12.288 231.424-121.856 233.472-254.464h1.024v-2.56-1.024c3.584-43.008-5.632-83.456-27.648-119.296l-25.6-39.424-32.256 32.256-139.776 139.776L716.8 254.464l136.192-136.192 39.424-39.424-50.688-20.992c-29.696-12.8-64-22.016-102.912-22.016-142.336 0-259.072 116.736-259.072 259.072 0 15.36 3.072 29.184 5.632 43.008-16.384 16.384-28.16 29.696-47.616 48.64l-146.944-146.944v-110.08l-18.432-10.24-129.536-77.312-23.552-15.36z" p-id="54482"></path></svg>