<?xml version="1.0" standalone="no"?><!DOCTYPE svg PUBLIC "-//W3C//DTD SVG 1.1//EN" "http://www.w3.org/Graphics/SVG/1.1/DTD/svg11.dtd"><svg class="icon" width="200px" height="200.00px" viewBox="0 0 1024 1024" version="1.1" xmlns="http://www.w3.org/2000/svg"><path  d="M766.5 410.4h-34.3c-7-49.1-30.1-94.3-66.3-129-41.6-39.9-96.3-61.9-154-61.9s-112.3 22-154 61.9c-36.2 34.8-59.3 80-66.3 129h-34.3c-92.6 0-168 75.3-168 168s75.3 168 168 168H312c12.4 0 22.5-10.1 22.5-22.5s-10.1-22.5-22.5-22.5h-54.5c-67.8 0-123-55.2-123-123s55.2-123 123-123h76.3l1-21.5c4.3-95 82.1-169.4 177.3-169.4s173.1 74.4 177.3 169.4l1 21.5h76.3c67.8 0 123 55.2 123 123s-55.2 123-123 123H712c-12.4 0-22.5 10.1-22.5 22.5s10.1 22.5 22.5 22.5h54.5c92.6 0 168-75.3 168-168s-75.3-168-168-168z"  /><path  d="M538.3 362.6V797h95.5V558.8h90.8L538.3 362.6z m65.5 166.2V767h-35.5V437.8l86.4 91.1h-50.9zM391.1 623.4h-90.8l186.3 196.2V385.2h-95.5v238.2z m30-208.2h35.5v329.2l-86.4-91.1h51V415.2z"  /></svg>