<?xml version="1.0" standalone="no"?><!DOCTYPE svg PUBLIC "-//W3C//DTD SVG 1.1//EN" "http://www.w3.org/Graphics/SVG/1.1/DTD/svg11.dtd"><svg class="icon" width="50px" height="50.00px" viewBox="0 0 1024 1024" version="1.1" xmlns="http://www.w3.org/2000/svg"><path fill="var(--color-text-1)" d="M801.911467 637.917867c0 9.233067-4.778667 14.2848-6.365867 14.2848H759.466667v-111.684267h36.096c1.536 0 6.365867 5.256533 6.365866 14.336v83.063467zM725.333333 720.315733c0 18.773333-15.650133 34.030933-34.901333 34.030934H321.979733c-19.2512 0-34.9184-15.274667-34.9184-34.030934v-248.832c0-57.514667 47.735467-104.311467 106.410667-104.311466h225.450667c58.658133 0 106.3936 46.7968 106.3936 104.311466v248.832z m-508.484266-68.096c-1.536 0-6.365867-5.239467-6.365867-14.301866v-83.063467c0-9.079467 4.829867-14.336 6.365867-14.336h36.096v111.684267h-36.096z m578.730666-145.834666h-36.113066v-34.901334c0-76.3392-63.061333-138.4448-140.544-138.4448h-0.324267l21.725867-38.0416c2.56 0.392533 5.0688 0.785067 7.697066 0.785067a50.005333 50.005333 0 1 0-49.988266-50.005333c0 12.578133 4.795733 23.9104 12.458666 32.682666l-31.197866 54.5792H394.8032l-30.6176-53.589333a49.664 49.664 0 0 0 13.226667-33.672533 50.005333 50.005333 0 1 0-49.988267 50.005333c2.218667 0 4.283733-0.375467 6.417067-0.648533l24.302933 42.513066c-60.416 15.496533-105.216 69.5296-105.216 133.8368v34.901334h-36.096c-22.340267 0-40.4992 21.742933-40.4992 48.469333v83.063467c0 26.692267 18.158933 48.418133 40.4992 48.418133h36.096v33.979733c0 37.5808 30.976 68.164267 69.051733 68.164267h368.4352c38.058667 0 69.034667-30.583467 69.034667-68.164267v-33.962666h36.096c22.357333 0 40.4992-21.742933 40.4992-48.4352v-83.063467c0-26.7264-18.158933-48.469333-40.4992-48.469333zM617.693867 596.923733H407.466667c-14.779733 0-26.794667-13.346133-26.794667-29.764266s12.014933-29.764267 26.794667-29.764267h210.2272c14.762667 0 26.794667 13.346133 26.794666 29.764267s-12.032 29.764267-26.794666 29.764266m0-76.5952H407.466667c-24.183467 0-43.861333 20.992-43.861334 46.830934 0 25.821867 19.677867 46.830933 43.861334 46.830933h210.2272c24.183467 0 43.861333-21.009067 43.861333-46.830933 0-25.821867-19.677867-46.830933-43.861333-46.830934" /></svg>